<svg version="1.2" xmlns="http://www.w3.org/2000/svg" viewBox="0 0 100 100" width="100" height="100">
	<title>1-svg</title>
	<style>
		.s0 { fill: #d6694b } 
		.s1 { fill: #7a6d79 } 
		.s2 { fill: #6bd9e7 } 
		.s3 { fill: #ffd15b } 
		.s4 { fill: #f3f0f3 } 
		.s5 { fill: #e2dee2 } 
		.s6 { fill: #ae6c6c } 
		.s7 { fill: #dd7f66 } 
		.s8 { fill: #685e68 } 
	</style>
	<path id="Layer" class="s0" d="m24.5 75h50.7v8.1h-50.7z"/>
	<path id="Layer" class="s1" d="m25.5 13.5c0-1.1 0.9-2 2-2h45c1.1 0 2 0.9 2 2v22.9c0 1.1-0.9 2-2 2h-45c-1.1 0-2-0.9-2-2z"/>
	<path id="Layer" class="s2" d="m28.3 15.4c0-0.6 0.4-1 1-1h41.2c0.6 0 1 0.4 1 1v19.2c0 0.5-0.4 1-1 1h-41.2c-0.6 0-1-0.5-1-1z"/>
	<path id="Layer" class="s3" d="m53.5 23.4c-1.6 0-2.8-1.3-2.8-2.9 0-1.5 1.2-2.8 2.8-2.8 1.6 0 2.9 1.3 2.9 2.8 0 1.6-1.3 2.9-2.9 2.9z"/>
	<path id="Layer" class="s4" d="m58.3 35.6h-25.6l5.1-5.2 6-6c0.9-0.9 2.5-0.9 3.4 0l6 6z"/>
	<path id="Layer" class="s5" d="m64.9 35.6h-16.7l0.6-0.7 6-6c1-0.9 2.5-0.9 3.5 0l6 6z"/>
	<path id="Layer" class="s6" d="m94.8 87.3h-89.8c-1.5 0-2.7-1.2-2.7-2.7 0-1.5 1.2-2.7 2.7-2.7h89.8c1.5 0 2.8 1.2 2.8 2.7 0 1.5-1.3 2.7-2.8 2.7z"/>
	<path id="Layer" class="s0" d="m5.2 67.5c0-0.6 0.4-1 1-1h9.5c0.6 0 1 0.4 1 1v13.4c0 0.5-0.4 1-1 1h-9.5c-0.6 0-1-0.5-1-1z"/>
	<path id="Layer" class="s7" d="m5.2 67.5c0-0.6 0.4-1 1-1h4.4c0.6 0 1 0.4 1 1v13.4c0 0.5-0.4 1-1 1h-4.4c-0.6 0-1-0.5-1-1z"/>
	<path id="Layer" class="s8" d="m11.8 72.8h-1.4c-0.8 0-1.4-0.6-1.4-1.4 0-0.8 0.6-1.4 1.4-1.4h1.4c0.8 0 1.4 0.6 1.4 1.4 0 0.8-0.6 1.4-1.4 1.4z"/>
	<path id="Layer" class="s0" d="m26.7 58.2c0-1.1 0.9-2 2-2h42.1c1.1 0 2 0.9 2 2v15.2c0 1.1-0.9 2-2 2h-42.1c-1.1 0-2-0.9-2-2z"/>
	<path id="Layer" class="s7" d="m26.7 58.2c0-1.1 0.9-2 2-2h36.2c1.1 0 2 0.9 2 2v15.2c0 1.1-0.9 2-2 2h-36.2c-1.1 0-2-0.9-2-2z"/>
	<path id="Layer" class="s0" d="m83.1 67.5c0-0.6 0.5-1 1-1h9.6c0.6 0 1 0.4 1 1v13.4c0 0.5-0.4 1-1 1h-9.6c-0.5 0-1-0.5-1-1z"/>
	<path id="Layer" class="s7" d="m83.1 67.5c0-0.6 0.5-1 1-1h4.5c0.6 0 1 0.4 1 1v13.4c0 0.5-0.4 1-1 1h-4.5c-0.5 0-1-0.5-1-1z"/>
	<path id="Layer" class="s8" d="m89.8 72.8h-1.5c-0.7 0-1.4-0.6-1.4-1.4 0-0.8 0.7-1.4 1.4-1.4h1.5c0.8 0 1.4 0.6 1.4 1.4 0 0.8-0.6 1.4-1.4 1.4z"/>
	<path id="Layer" class="s5" d="m22.1 69.2c0-0.6 0.4-1 1-1h53.5c0.6 0 1 0.4 1 1v6.5c0 0.6-0.4 1-1 1h-53.5c-0.6 0-1-0.4-1-1z"/>
	<path id="Layer" class="s4" d="m22.1 69.2c0-0.6 0.4-1 1-1h48c0.5 0 1 0.4 1 1v6.5c0 0.6-0.5 1-1 1h-48c-0.6 0-1-0.4-1-1z"/>
	<path id="Layer" class="s5" d="m46.9 65.3c0 0.8-0.3 1.6-0.8 2.1-0.6 0.5-1.3 0.9-2.1 0.9h-6.4c-1.6 0-3-1.4-3-3 0-0.8 0.4-1.6 0.9-2.1 0.5-0.5 1.3-0.9 2.1-0.9h6.4c1.6 0 2.9 1.4 2.9 3z"/>
	<path id="Layer" class="s4" d="m41.1 65.3c0 0.8-0.3 1.6-0.9 2.1-0.5 0.5-1.2 0.9-2.1 0.9h-0.5c-1.6 0-3-1.4-3-3 0-0.8 0.4-1.6 0.9-2.1 0.5-0.5 1.3-0.9 2.1-0.9h0.5c1.7 0 3 1.4 3 3z"/>
	<path id="Layer" class="s5" d="m65.2 65.3c0 0.8-0.4 1.6-0.9 2.1-0.5 0.5-1.3 0.9-2.1 0.9h-6.4c-1.6 0-2.9-1.4-2.9-3 0-0.8 0.3-1.6 0.8-2.1 0.6-0.5 1.3-0.9 2.1-0.9h6.4c1.6 0 3 1.4 3 3z"/>
	<path id="Layer" class="s4" d="m59.3 65.3c0 0.8-0.3 1.6-0.8 2.1-0.6 0.5-1.3 0.9-2.1 0.9h-0.6c-1.6 0-2.9-1.4-2.9-3 0-0.8 0.3-1.6 0.8-2.1 0.6-0.5 1.3-0.9 2.1-0.9h0.6c1.6 0 2.9 1.4 2.9 3z"/>
</svg>