<svg version="1.2" xmlns="http://www.w3.org/2000/svg" viewBox="0 0 100 100" width="100" height="100">
	<title>6-svg</title>
	<style>
		.s0 { fill: #e9eaeb } 
		.s1 { fill: #fdc74f } 
		.s2 { fill: #fca629 } 
		.s3 { fill: #b9bbc1 } 
		.s4 { fill: #0fb0c0 } 
		.s5 { fill: #00c6c8 } 
		.s6 { fill: #ffffff } 
		.s7 { fill: #706f7f } 
		.s8 { fill: #8b8996 } 
		.s9 { fill: #fc502a } 
		.s10 { fill: #e60d28 } 
		.s11 { fill: #f2f2f2 } 
	</style>
	<path id="Layer" class="s0" d="m76.7 13.9v70.6h-60.1c-1.4 0-2.5-1.1-2.5-2.5v-65.7c0-1.3 1.1-2.4 2.5-2.4z"/>
	<path id="Layer" class="s1" d="m76.7 13.9v23.4h-60.1c-1.4 0-2.5-0.9-2.5-2v-19.4c0-1.1 1.1-2 2.5-2z"/>
	<path id="Layer" class="s2" d="m85.8 16.3v23.8c0 1.4-1.1 2.5-2.4 2.5h-6.7v-28.7h6.7c1.3 0 2.4 1.1 2.4 2.4z"/>
	<path id="Layer" class="s3" d="m85.8 33.7v48c0 1.5-1.1 2.8-2.4 2.8h-6.7v-48h6.7c1.3 0 2.4-1.2 2.4-2.8z"/>
	<path id="Layer" class="s4" d="m19.1 52.6c0-1.1 0.9-2 2-2h12.5c1.1 0 2 0.9 2 2v30.1c0 1.1-0.9 2-2 2h-12.5c-1.1 0-2-0.9-2-2z"/>
	<path id="Layer" class="s5" d="m28.4 84.7h-7.1c-1.2 0-2.2-1-2.2-2.1v-29.8c0-1.2 1-2.2 2.2-2.2h7.1c-1.1 0-2.1 1-2.1 2.2v29.8c0 1.1 1 2.1 2.1 2.1z"/>
	<path id="Layer" class="s6" d="m31.1 68.1c-0.8 0-1.5-0.6-1.5-1.4v-2.3c0-0.8 0.7-1.5 1.5-1.5 0.8 0 1.5 0.7 1.5 1.5v2.3c0 0.8-0.7 1.4-1.5 1.4z"/>
	<path id="Layer" class="s5" d="m41.1 52.5c0-1.1 0.9-2 2-2h34.6c1.1 0 2 0.9 2 2v19c0 1.1-0.9 2-2 2h-34.6c-1.1 0-2-0.9-2-2z"/>
	<path id="Layer" class="s4" d="m70.5 52.5c0-1.1 0.9-2 2-2h5.2c1.1 0 2 0.9 2 2v19c0 1.1-0.9 2-2 2h-5.2c-1.1 0-2-0.9-2-2z"/>
	<path id="Layer" class="s7" d="m91.8 84.9c0 1.1-0.5 2-1.1 2.7-0.7 0.6-1.6 1.1-2.7 1.1h-76c-2.1 0-3.8-1.7-3.8-3.8 0-1 0.5-1.9 1.1-2.6 0.7-0.7 1.6-1.1 2.7-1.1h76c2.1 0 3.8 1.7 3.8 3.7z"/>
	<path id="Layer" class="s8" d="m83.6 84.9c0 1.1-0.4 2-1.1 2.7-0.7 0.6-1.6 1.1-2.6 1.1h-67.9c-2.1 0-3.8-1.7-3.8-3.8 0-1 0.5-1.9 1.1-2.6 0.7-0.7 1.6-1.1 2.7-1.1h67.9c2 0 3.7 1.7 3.7 3.7z"/>
	<path id="Layer" class="s9" d="m91.8 33.2h-83.6l5.7-11.6h72.2z"/>
	<path id="Layer" class="s10" d="m14.2 44c-3.3 0-6-2.7-6-6v-4.8h12v4.8c0 3.3-2.7 6-6 6z"/>
	<path id="Layer" class="s10" d="m85.8 44c-3.3 0-6-2.7-6-6v-4.8h12v4.8c0 3.3-2.7 6-6 6z"/>
	<path id="Layer" class="s11" d="m26.2 44h-0.1c-3.3 0-5.9-2.7-5.9-6v-4.8h11.9v4.8c0 3.3-2.7 6-5.9 6z"/>
	<path id="Layer" class="s10" d="m38.1 44h-0.1c-3.3 0-5.9-2.7-5.9-6v-4.8h11.9v4.8c0 3.3-2.6 6-5.9 6z"/>
	<path id="Layer" class="s11" d="m50.1 44h-0.1c-3.3 0-6-2.7-6-6v-4.8h12v4.8c0 3.3-2.7 6-5.9 6z"/>
	<path id="Layer" class="s10" d="m62 44h-0.1c-3.3 0-5.9-2.7-5.9-6v-4.8h11.9v4.8c0 3.3-2.6 6-5.9 6z"/>
	<path id="Layer" class="s11" d="m73.9 44h-0.1c-3.2 0-5.9-2.7-5.9-6v-4.8h11.9v4.8c0 3.3-2.6 6-5.9 6z"/>
	<path id="Layer" class="s6" d="m34.8 21.6l-2.7 11.6h-11.9l4.2-11.6z"/>
	<path id="Layer" class="s6" d="m56 33.2h-12l0.9-11.6h10.2z"/>
	<path id="Layer" class="s6" d="m79.8 33.2h-11.9l-2.5-11.6h10.3z"/>
</svg>