<svg version="1.2" xmlns="http://www.w3.org/2000/svg" viewBox="0 0 100 100" width="100" height="100">
	<title>8-svg</title>
	<style>
		.s0 { fill: #f3f0f3 } 
		.s1 { fill: #e2dee2 } 
		.s2 { fill: #918291 } 
		.s3 { fill: #a79ba7 } 
		.s4 { fill: #b5adb6 } 
		.s5 { fill: #9b5e5e } 
		.s6 { fill: #ae6c6c } 
		.s7 { fill: #7a6d79 } 
		.s8 { fill: #e94444 } 
		.s9 { fill: #ee6161 } 
		.s10 { fill: #a6e7f0 } 
		.s11 { fill: #d4f2f6 } 
		.s12 { fill: #ffd15b } 
		.s13 { fill: #685e68 } 
		.s14 { fill: #cbc4cc } 
	</style>
	<path id="Layer" class="s0" d="m90.7 28.4v52.4h-80v-51.7l40.5-11.9 33.8 9.6z"/>
	<path id="Layer" class="s1" d="m90.7 28.4v52.4h-5.7v-54z"/>
	<path id="Layer" class="s2" d="m91.6 31.3c1.4 0.4 2.9-0.4 3.3-1.9 0.4-1.4-0.5-2.9-1.9-3.3l-42.8-12-42.6 12c-1.5 0.4-2.3 1.9-1.9 3.3 0.4 1.5 1.9 2.3 3.3 1.9l41.2-11.3z"/>
	<path id="Layer" class="s3" d="m16.4 38.3c0-0.6 0.4-1 1-1h66.5c0.5 0 1 0.4 1 1v40.8c0 0.6-0.5 1-1 1h-66.5c-0.6 0-1-0.4-1-1z"/>
	<path id="Layer" class="s4" d="m16.4 38.3c0-0.6 0.4-1 1-1h61.4c0.5 0 1 0.4 1 1v40.8c0 0.6-0.5 1-1 1h-61.4c-0.6 0-1-0.4-1-1z"/>
	<path id="Layer" class="s5" d="m95.7 82c0 0.7-0.3 1.4-0.8 1.9-0.5 0.5-1.2 0.8-1.9 0.8h-84.6c-1.6 0-2.8-1.2-2.8-2.7 0-0.8 0.3-1.5 0.8-2 0.5-0.5 1.2-0.8 2-0.8h84.6c1.5 0 2.7 1.3 2.7 2.8z"/>
	<path id="Layer" class="s6" d="m90.1 82c0 0.7-0.3 1.4-0.8 1.9-0.5 0.5-1.2 0.8-1.9 0.8h-79c-1.6 0-2.8-1.2-2.8-2.7 0-0.8 0.3-1.5 0.8-2 0.5-0.5 1.2-0.8 2-0.8h79c1.5 0 2.7 1.3 2.7 2.8z"/>
	<path id="Layer" class="s7" d="m84.9 38.5v4.6h-68.5v-4.6c0-0.7 0.5-1.2 1.2-1.2h66c0.7 0 1.3 0.5 1.3 1.2z"/>
	<path id="Layer" class="s2" d="m79.8 38.5v4.6h-63.4v-4.6c0-0.7 0.5-1.2 1.2-1.2h61c0.6 0 1.2 0.5 1.2 1.2z"/>
	<path id="Layer" class="s8" d="m36 49.9c0-0.6 0.4-1 1-1h27.4c0.6 0 1 0.4 1 1v11.1c0 0.5-0.4 1-1 1h-27.4c-0.6 0-1-0.5-1-1z"/>
	<path id="Layer" class="s9" d="m36 49.9c0-0.6 0.4-1 1-1h22c0.5 0 1 0.4 1 1v11.1c0 0.5-0.5 1-1 1h-22c-0.6 0-1-0.5-1-1z"/>
	<path id="Layer" class="s10" d="m65.4 53.1v7.6c0 0.7-0.6 1.3-1.3 1.3h-26.8c-0.7 0-1.3-0.6-1.3-1.3v-7.6z"/>
	<path id="Layer" class="s11" d="m60 53.1v7.6c0 0.7-0.6 1.3-1.3 1.3h-21.4c-0.7 0-1.3-0.6-1.3-1.3v-7.6z"/>
	<path id="Layer" class="s8" d="m69.5 63.5v6.6h-37.6v-6.6c0-1.9 1.5-3.4 3.4-3.4h30.9c1.8 0 3.3 1.6 3.3 3.4z"/>
	<path id="Layer" class="s9" d="m64.2 63.5v6.6h-32.3v-6.6c0-1.9 1.5-3.4 3.4-3.4h25.5c1.9 0 3.4 1.6 3.4 3.4z"/>
	<path id="Layer" class="s12" d="m39.1 65.3h-2.5c-0.8 0-1.4-0.6-1.4-1.3 0-0.8 0.6-1.3 1.4-1.3h2.5c0.7 0 1.3 0.5 1.3 1.3 0 0.7-0.6 1.3-1.3 1.3z"/>
	<path id="Layer" class="s12" d="m64.7 65.3h-2.5c-0.8 0-1.4-0.6-1.4-1.3 0-0.8 0.6-1.3 1.4-1.3h2.5c0.7 0 1.3 0.5 1.3 1.3 0 0.7-0.6 1.3-1.3 1.3z"/>
	<path id="Layer" class="s13" d="m35.1 72.8c0-1.6 1.4-3 3-3h0.1c1.7 0 3 1.4 3 3v3.4c0 1.7-1.3 3-3 3h-0.1c-1.6 0-3-1.3-3-3z"/>
	<path id="Layer" class="s13" d="m60.2 72.8c0-1.6 1.3-3 3-3h0.1c1.6 0 3 1.4 3 3v3.4c0 1.7-1.4 3-3 3h-0.1c-1.7 0-3-1.3-3-3z"/>
	<path id="Layer" class="s14" d="m29.7 69.1c0-0.5 0.4-1 1-1h39.8c0.6 0 1 0.5 1 1v3.5c0 0.5-0.4 1-1 1h-39.8c-0.6 0-1-0.5-1-1z"/>
	<path id="Layer" class="s1" d="m29.7 69.1c0-0.5 0.4-1 1-1h34.4c0.6 0 1 0.5 1 1v3.5c0 0.5-0.4 1-1 1h-34.4c-0.6 0-1-0.5-1-1z"/>
</svg>