<svg version="1.2" xmlns="http://www.w3.org/2000/svg" viewBox="0 0 100 100" width="100" height="100">
	<title>2-svg</title>
	<style>
		.s0 { fill: #d3effb } 
		.s1 { fill: #407093 } 
		.s2 { fill: #365e7d } 
		.s3 { opacity: .3;fill: #364271 } 
		.s4 { fill: #ce9875 } 
		.s5 { fill: #bd8b6b } 
		.s6 { fill: #d8aa8b } 
		.s7 { fill: #b1e4f9 } 
		.s8 { fill: #c2997d } 
	</style>
	<path id="Layer" class="s0" d="m17.8 43.9h67.3c2.2 0 3.9 1.8 3.9 3.9v14.4h-75.1v-14.4c0-2.1 1.8-3.9 3.9-3.9z"/>
	<path id="Layer" class="s1" d="m34.4 43.9h50.7c2.2 0 3.9 1.8 3.9 3.9v14.4h-58.5v-14.4c0-2.1 1.8-3.9 3.9-3.9z"/>
	<path id="Layer" class="s2" d="m41.8 43.9h43.3c2.2 0 3.9 1.8 3.9 3.9v14.4h-51.1v-14.4c0-2.1 1.8-3.9 3.9-3.9z"/>
	<path id="Layer" class="s3" d="m89 48.9v13.3h-75.1v-6.9h62.6c2.8 0 5-2.2 5-5v-6.4h2.5c2.8 0 5 2.3 5 5z"/>
	<path id="Layer" class="s4" d="m9.8 57.9h81.4v11.9h-81.4z"/>
	<path id="Layer" class="s5" d="m9.8 67.4h81.4v2.4h-81.4z"/>
	<path id="Layer" class="s6" d="m6.9 20.9c0-1.2 0.9-2 2-2h3.2c1.1 0 2 0.8 2 2v60.9c0 1.1-0.9 2-2 2h-3.2c-1.1 0-2-0.9-2-2z"/>
	<path id="Layer" class="s6" d="m88.7 52.6c0-0.5 0.5-1 1-1h5.2c0.6 0 1 0.5 1 1v30.2c0 0.6-0.4 1-1 1h-5.2c-0.5 0-1-0.4-1-1z"/>
	<path id="Layer" class="s0" d="m24.1 43.4l-2.3 0.6c-2.1 0.6-4.3-0.6-4.9-2.7l-3.3-11c-0.6-2.2 0.6-4.4 2.7-5l2.3-0.7c2.1-0.6 4.3 0.6 4.9 2.7l3.3 11.1c0.6 2.1-0.6 4.3-2.7 5z"/>
	<path id="Layer" class="s7" d="m22.9 43.7c-2.3 0.7-4.8-0.4-5.9-2.4q0.8 0 1.6-0.2c2.8-0.8 4.3-3.7 3.5-6.5l-2.5-8.8q-0.2-0.5-0.5-1c2.2 0 4.1 1.5 4.8 3.7l2.5 8.8c0.8 2.7-0.7 5.6-3.5 6.4z"/>
	<path id="Layer" class="s8" d="m95.9 53.4v28.7c0 0.9-0.7 1.7-1.7 1.7h-2.1c0.9 0 1.7-0.8 1.7-1.7v-28.7c0-1-0.8-1.8-1.7-1.8h2.1c1 0.1 1.7 0.8 1.7 1.8z"/>
	<path id="Layer" class="s8" d="m14.1 20.9v60.9c0 1.1-0.9 2-2 2h-1.9c1-0.1 1.7-1 1.7-2v-60.9c0-1.1-0.8-2-2-2h-1.3q0.1-0.1 0.3-0.1h3.2c1.1 0.1 2 0.9 2 2.1z"/>
</svg>