<svg version="1.2" xmlns="http://www.w3.org/2000/svg" viewBox="0 0 100 100" width="100" height="100">
	<title>3-svg</title>
	<style>
		.s0 { fill: #e2dee2 } 
		.s1 { fill: #918291 } 
		.s2 { fill: #a6e7f0 } 
		.s3 { fill: #6bd9e7 } 
		.s4 { fill: #f3f0f3 } 
		.s5 { fill: #dd7f66 } 
		.s6 { fill: #7a6d79 } 
		.s7 { fill: #9b5e5e } 
		.s8 { fill: #ae6c6c } 
	</style>
	<path id="Layer" class="s0" d="m50.8 15.1l-33.2 10.8v32.9h66.1v-34.3z"/>
	<path id="Layer" class="s1" d="m24.5 31.6c0-1.1 0.9-2 2-2h48.8c1.1 0 2 0.9 2 2v16.7c0 1.1-0.9 2-2 2h-48.8c-1.1 0-2-0.9-2-2z"/>
	<g id="Layer">
		<path id="Layer" class="s2" d="m27 32h8.5v16h-8.5z"/>
		<path id="Layer" class="s3" d="m31.5 32h4v16h-4z"/>
	</g>
	<g id="Layer">
		<path id="Layer" class="s2" d="m38.2 32h7.6v16h-7.6z"/>
		<path id="Layer" class="s3" d="m45.8 32h4v16h-4z"/>
	</g>
	<g id="Layer">
		<path id="Layer" class="s2" d="m66.4 32h8.5v16h-8.5z"/>
		<path id="Layer" class="s3" d="m70.9 32h4v16h-4z"/>
	</g>
	<g id="Layer">
		<path id="Layer" class="s2" d="m52.3 32h7.6v16h-7.6z"/>
		<path id="Layer" class="s3" d="m59.9 32h4.1v16h-4.1z"/>
	</g>
	<path id="Layer" class="s4" d="m11.6 57.4c0-0.6 0.4-1 1-1h76.3c0.6 0 1 0.4 1 1v25.7c0 0.6-0.4 1-1 1h-76.3c-0.6 0-1-0.4-1-1z"/>
	<path id="Layer" class="s5" d="m25.8 56.4h14.4v27.3h-14.4z"/>
	<path id="Layer" class="s1" d="m50.2 63.4c0-0.6 0.4-1 1-1h27.1c0.5 0 1 0.4 1 1v19.7c0 0.6-0.5 1-1 1h-27.1c-0.6 0-1-0.4-1-1z"/>
	<path id="Layer" class="s6" d="m50.2 65.2h29.1v2.8h-29.1z"/>
	<path id="Layer" class="s6" d="m50.2 70.8h29.1v2.7h-29.1z"/>
	<path id="Layer" class="s6" d="m50.2 76.3h29.1v2.8h-29.1z"/>
	<path id="Layer" class="s7" d="m95 84.3c0 0.7-0.3 1.4-0.8 1.9-0.5 0.5-1.2 0.8-1.9 0.8h-83.1c-1.5 0-2.8-1.2-2.8-2.7 0-0.8 0.3-1.5 0.8-2 0.5-0.5 1.2-0.8 2-0.8h83.1c1.5 0 2.7 1.3 2.7 2.8z"/>
	<path id="Layer" class="s8" d="m89.6 84.3c0 0.7-0.3 1.4-0.8 1.9-0.5 0.5-1.2 0.8-2 0.8h-77.6c-1.5 0-2.8-1.2-2.8-2.7 0-0.8 0.3-1.5 0.8-2 0.5-0.5 1.2-0.8 2-0.8h77.6c1.5 0 2.8 1.3 2.8 2.8z"/>
	<path id="Layer" class="s2" d="m22.1 63.3c0-0.5 0.4-1 1-1h5.9c0.6 0 1 0.5 1 1v9.5c0 0.6-0.4 1-1 1h-5.9c-0.6 0-1-0.4-1-1z"/>
	<path id="Layer" class="s2" d="m36.1 63.3c0-0.5 0.5-1 1-1h5.9c0.6 0 1 0.5 1 1v9.5c0 0.6-0.4 1-1 1h-5.9c-0.5 0-1-0.4-1-1z"/>
	<path id="Layer" class="s1" d="m91.1 29.2c1.4 0.4 2.8-0.4 3.2-1.8 0.4-1.4-0.5-2.8-1.8-3.2l-41.9-11.7-41.7 11.7c-1.3 0.4-2.2 1.8-1.8 3.2 0.4 1.4 1.8 2.2 3.2 1.8l40.3-11z"/>
</svg>