<svg version="1.2" xmlns="http://www.w3.org/2000/svg" viewBox="0 0 100 100" width="100" height="100">
	<title>4-svg</title>
	<style>
		.s0 { fill: #b5adb6 } 
		.s1 { fill: #e2dee2 } 
		.s2 { fill: #7a6d79 } 
		.s3 { fill: #918291 } 
		.s4 { fill: #f3f0f3 } 
		.s5 { fill: #a6e7f0 } 
		.s6 { fill: #6bd9e7 } 
		.s7 { fill: #97da7b } 
		.s8 { fill: #80d261 } 
		.s9 { fill: #d6694b } 
		.s10 { fill: #9b5e5e } 
		.s11 { fill: #ae6c6c } 
	</style>
	<path id="Layer" class="s0" d="m25.5 5.3c0.7 0 1.3 0.6 1.3 1.3v11c0 0.7-0.6 1.3-1.3 1.3-0.8 0-1.3-0.6-1.3-1.3v-11c0-0.7 0.6-1.3 1.3-1.3z"/>
	<path id="Layer" class="s1" d="m56.6 28.2v62h-34.7v-64.6h32.1c1.4 0 2.6 1.2 2.6 2.6z"/>
	<path id="Layer" class="s2" d="m47.5 22.6v3.8h-25.6v-8.4c0-1 0.8-1.7 1.7-1.7h17.6c3.4 0 6.3 2.8 6.3 6.3z"/>
	<path id="Layer" class="s3" d="m41.9 22.6v3.8h-20v-8.4c0-1 0.8-1.7 1.7-1.7h12.1c3.4 0 6.2 2.8 6.2 6.3z"/>
	<path id="Layer" class="s4" d="m51.5 28.2v62h-29.6v-64.6h27c1.4 0 2.6 1.2 2.6 2.6z"/>
	<path id="Layer" class="s5" d="m30.3 33.4v47.6c0 0.6-0.5 1.1-1.1 1.1h-7.3v-49.8h7.3c0.6 0 1.1 0.5 1.1 1.1z"/>
	<g id="Layer">
		<path id="Layer" class="s5" d="m56.6 32.4v7.3h-14.7c-0.7 0-1.2-0.5-1.2-1.2v-4.8c0-0.7 0.5-1.3 1.2-1.3z"/>
		<path id="Layer" class="s6" d="m51.5 32.4h5.1v7.3h-5.1z"/>
	</g>
	<g id="Layer">
		<path id="Layer" class="s5" d="m56.6 75.2v7.3h-14.7c-0.7 0-1.2-0.5-1.2-1.2v-4.9c0-0.7 0.5-1.2 1.2-1.2z"/>
		<path id="Layer" class="s6" d="m51.5 75.2h5.1v7.3h-5.1z"/>
	</g>
	<g id="Layer">
		<path id="Layer" class="s5" d="m56.6 32.4v7.3h-14.7c-0.7 0-1.2-0.5-1.2-1.2v-4.8c0-0.7 0.5-1.3 1.2-1.3z"/>
		<path id="Layer" class="s6" d="m51.5 32.4h5.1v7.3h-5.1z"/>
	</g>
	<g id="Layer">
		<path id="Layer" class="s5" d="m56.6 60.9v7.3h-14.7c-0.7 0-1.2-0.5-1.2-1.2v-4.8c0-0.7 0.5-1.3 1.2-1.3z"/>
		<path id="Layer" class="s6" d="m51.5 60.9h5.1v7.3h-5.1z"/>
	</g>
	<g id="Layer">
		<path id="Layer" class="s5" d="m56.6 46.7v7.3h-14.7c-0.7 0-1.2-0.6-1.2-1.2v-4.9c0-0.7 0.5-1.2 1.2-1.2z"/>
		<path id="Layer" class="s6" d="m51.5 46.7h5.1v7.3h-5.1z"/>
	</g>
	<path id="Layer" class="s7" d="m79.7 63.5c0.8-1.1 1.3-2.5 1.3-4 0-3.4-2.8-6.3-6.3-6.3-3.4 0-6.3 2.9-6.3 6.3 0 1.5 0.6 2.9 1.4 4-2.9 1.7-4.8 4.8-4.8 8.4 0 5.4 4.4 9.8 9.8 9.8 5.4 0 9.7-4.4 9.7-9.8 0-3.6-1.9-6.7-4.8-8.4z"/>
	<path id="Layer" class="s8" d="m84.5 71.9c0 5.4-4.3 9.8-9.7 9.8q-1.3 0-2.6-0.4c4.2-1.1 7.3-4.9 7.3-9.4 0-3.6-1.9-6.7-4.8-8.4 0.8-1.1 1.3-2.5 1.3-4 0-2.5-1.5-4.8-3.8-5.7q1.2-0.5 2.5-0.6c3.5 0 6.3 2.9 6.3 6.3 0 1.5-0.5 2.9-1.3 4 2.9 1.7 4.8 4.8 4.8 8.4z"/>
	<path id="Layer" class="s9" d="m76 59.4v30c0 0.8-0.6 1.4-1.4 1.4-0.8 0-1.4-0.6-1.4-1.4v-30c0-0.7 0.6-1.4 1.4-1.4 0.4 0 0.7 0.2 1 0.4 0.2 0.3 0.4 0.6 0.4 1z"/>
	<path id="Layer" class="s9" d="m80.1 68.3c0 0.5-0.3 1-0.8 1.3l-3 1.5-2.7 1.2v-3.1l2.7-1.2 1.9-1c0.7-0.3 1.5 0 1.8 0.7q0.1 0.3 0.1 0.6z"/>
	<path id="Layer" class="s9" d="m75.7 74.3v3.1l-2.7-1.3-3.3-1.5c-0.7-0.4-1-1.2-0.7-1.9 0.2-0.5 0.7-0.8 1.2-0.8q0.3 0 0.6 0.1l2.2 1z"/>
	<path id="Layer" class="s10" d="m94.3 90.9c0 0.8-0.3 1.5-0.8 2-0.5 0.5-1.1 0.9-1.8 0.9h-83.3c-1.4 0-2.6-1.3-2.6-2.9 0-0.8 0.3-1.5 0.8-2 0.4-0.5 1.1-0.8 1.8-0.8h83.3c1.4 0 2.6 1.2 2.6 2.8z"/>
	<path id="Layer" class="s11" d="m89.1 90.9c0 0.8-0.3 1.5-0.8 2-0.4 0.5-1.1 0.9-1.8 0.9h-78.1c-1.4 0-2.6-1.3-2.6-2.9 0-0.8 0.3-1.5 0.8-2 0.4-0.5 1.1-0.8 1.8-0.8h78.1c1.4 0 2.6 1.2 2.6 2.8z"/>
</svg>