<svg version="1.2" xmlns="http://www.w3.org/2000/svg" viewBox="0 0 100 100" width="100" height="100">
	<title>5-svg</title>
	<style>
		.s0 { fill: #cbc4cc } 
		.s1 { fill: #918291 } 
		.s2 { fill: #dcf5f8 } 
		.s3 { fill: #554e56 } 
		.s4 { fill: #7a6d79 } 
		.s5 { fill: #9b5e5e } 
		.s6 { fill: #ae6c6c } 
	</style>
	<path id="Layer" class="s0" d="m19.7 24.7h2.6v6.9h-2.6z"/>
	<path id="Layer" class="s0" d="m40.7 24.7h2.6v6.9h-2.6z"/>
	<path id="Layer" class="s0" d="m33.7 24.7h2.6v6.9h-2.6z"/>
	<path id="Layer" class="s0" d="m26.7 24.7h2.6v6.9h-2.6z"/>
	<path id="Layer" class="s0" d="m44.2 25.4h-25.4c-0.7 0-1.3-0.6-1.3-1.3 0-0.8 0.6-1.4 1.3-1.4h25.4c0.8 0 1.4 0.6 1.4 1.4 0 0.7-0.6 1.3-1.4 1.3z"/>
	<path id="Layer" class="s1" d="m17.7 31.1c0-0.6 0.4-1 1-1h25.7c0.6 0 1 0.4 1 1v45.5c0 0.5-0.4 1-1 1h-25.7c-0.6 0-1-0.5-1-1z"/>
	<path id="Layer" class="s2" d="m23.1 36.7c0-0.5 0.4-1 1-1h3.6c0.6 0 1 0.5 1 1v3.6c0 0.6-0.4 1-1 1h-3.6c-0.6 0-1-0.4-1-1z"/>
	<path id="Layer" class="s2" d="m23.1 47.7c0-0.5 0.4-1 1-1h3.6c0.6 0 1 0.5 1 1v3.7c0 0.5-0.4 1-1 1h-3.6c-0.6 0-1-0.5-1-1z"/>
	<path id="Layer" class="s2" d="m23.1 58.8c0-0.6 0.4-1 1-1h3.6c0.6 0 1 0.4 1 1v3.6c0 0.6-0.4 1-1 1h-3.6c-0.6 0-1-0.4-1-1z"/>
	<path id="Layer" class="s2" d="m34.3 36.7c0-0.5 0.5-1 1-1h3.7c0.5 0 1 0.5 1 1v3.6c0 0.6-0.5 1-1 1h-3.7c-0.5 0-1-0.4-1-1z"/>
	<path id="Layer" class="s2" d="m34.3 47.7c0-0.5 0.5-1 1-1h3.7c0.5 0 1 0.5 1 1v3.7c0 0.5-0.5 1-1 1h-3.7c-0.5 0-1-0.5-1-1z"/>
	<path id="Layer" class="s2" d="m34.3 58.8c0-0.6 0.5-1 1-1h3.7c0.5 0 1 0.4 1 1v3.6c0 0.6-0.5 1-1 1h-3.7c-0.5 0-1-0.4-1-1z"/>
	<path id="Layer" class="s3" d="m23.1 69c0-0.6 0.4-1 1-1h14.9c0.5 0 1 0.4 1 1v7.5c0 0.6-0.5 1-1 1h-14.9c-0.6 0-1-0.4-1-1z"/>
	<path id="Layer" class="s4" d="m45.4 31.5v44.6c0 0.8-0.6 1.5-1.4 1.5h-5.5c0.8 0 1.5-0.7 1.5-1.5v-44.6c0-0.8-0.7-1.4-1.5-1.4h5.5c0.8 0 1.4 0.6 1.4 1.4z"/>
	<path id="Layer" class="s0" d="m56.7 24.7h2.7v6.9h-2.7z"/>
	<path id="Layer" class="s0" d="m77.7 24.7h2.6v6.9h-2.6z"/>
	<path id="Layer" class="s0" d="m70.7 24.7h2.6v6.9h-2.6z"/>
	<path id="Layer" class="s0" d="m63.7 24.7h2.7v6.9h-2.7z"/>
	<path id="Layer" class="s0" d="m81.3 25.4h-25.4c-0.8 0-1.4-0.6-1.4-1.3 0-0.8 0.6-1.4 1.4-1.4h25.4c0.7 0 1.3 0.6 1.3 1.4 0 0.7-0.6 1.3-1.3 1.3z"/>
	<path id="Layer" class="s1" d="m54.7 31.1c0-0.6 0.5-1 1-1h25.8c0.5 0 1 0.4 1 1v45.5c0 0.5-0.5 1-1 1h-25.8c-0.5 0-1-0.5-1-1z"/>
	<path id="Layer" class="s2" d="m60.1 36.7c0-0.5 0.5-1 1-1h3.7c0.5 0 1 0.5 1 1v3.6c0 0.6-0.5 1-1 1h-3.7c-0.5 0-1-0.4-1-1z"/>
	<path id="Layer" class="s2" d="m60.1 47.7c0-0.5 0.5-1 1-1h3.7c0.5 0 1 0.5 1 1v3.7c0 0.5-0.5 1-1 1h-3.7c-0.5 0-1-0.5-1-1z"/>
	<path id="Layer" class="s2" d="m60.1 58.8c0-0.6 0.5-1 1-1h3.7c0.5 0 1 0.4 1 1v3.6c0 0.6-0.5 1-1 1h-3.7c-0.5 0-1-0.4-1-1z"/>
	<path id="Layer" class="s2" d="m71.4 36.7c0-0.5 0.4-1 1-1h3.6c0.6 0 1 0.5 1 1v3.6c0 0.6-0.4 1-1 1h-3.6c-0.6 0-1-0.4-1-1z"/>
	<path id="Layer" class="s2" d="m71.4 47.7c0-0.5 0.4-1 1-1h3.6c0.6 0 1 0.5 1 1v3.7c0 0.5-0.4 1-1 1h-3.6c-0.6 0-1-0.5-1-1z"/>
	<path id="Layer" class="s2" d="m71.4 58.8c0-0.6 0.4-1 1-1h3.6c0.6 0 1 0.4 1 1v3.6c0 0.6-0.4 1-1 1h-3.6c-0.6 0-1-0.4-1-1z"/>
	<path id="Layer" class="s3" d="m60.1 69c0-0.6 0.5-1 1-1h14.9c0.6 0 1 0.4 1 1v7.5c0 0.6-0.4 1-1 1h-14.9c-0.5 0-1-0.4-1-1z"/>
	<path id="Layer" class="s4" d="m82.5 31.5v44.6c0 0.8-0.7 1.5-1.5 1.5h-5.4c0.8 0 1.4-0.7 1.4-1.5v-44.6c0-0.8-0.6-1.4-1.4-1.4h5.4c0.8 0 1.5 0.6 1.5 1.4z"/>
	<path id="Layer" class="s5" d="m95.7 77.8c0 0.8-0.3 1.5-0.8 2-0.5 0.5-1.2 0.8-2 0.8h-85.8c-1.5 0-2.8-1.3-2.8-2.8 0-0.7 0.3-1.4 0.8-1.9 0.5-0.5 1.2-0.8 2-0.8h85.8c1.5 0 2.8 1.2 2.8 2.7z"/>
	<path id="Layer" class="s6" d="m90.2 77.8c0 0.8-0.3 1.5-0.8 2-0.5 0.5-1.2 0.8-2 0.8h-80.3c-1.5 0-2.8-1.3-2.8-2.8 0-0.7 0.3-1.4 0.8-1.9 0.5-0.5 1.2-0.8 2-0.8h80.3c1.5 0 2.8 1.2 2.8 2.7z"/>
</svg>