<svg version="1.2" xmlns="http://www.w3.org/2000/svg" viewBox="0 0 100 100" width="100" height="100">
	<title>7-svg</title>
	<style>
		.s0 { fill: #a79ba7 } 
		.s1 { fill: #b5adb6 } 
		.s2 { fill: #d6694b } 
		.s3 { fill: #7a6d79 } 
		.s4 { fill: #dd7f66 } 
		.s5 { fill: #918291 } 
		.s6 { fill: #9b5e5e } 
		.s7 { fill: #ae6c6c } 
		.s8 { fill: #a6e7f0 } 
		.s9 { fill: #e2dee2 } 
		.s10 { fill: #f3f0f3 } 
	</style>
	<path id="Layer" class="s0" d="m55.6 66.4h-5v-39.2h2.5c0.6 0 1.1 0.4 1.1 1.1z"/>
	<path id="Layer" class="s1" d="m50.6 27.2v39.2h-4.9l1.3-38.1c0-0.7 0.5-1.1 1.1-1.1z"/>
	<path id="Layer" class="s0" d="m73.7 66.4h-5v-39.2h2.5c0.6 0 1.1 0.4 1.1 1.1z"/>
	<path id="Layer" class="s1" d="m68.7 27.2v39.2h-4.9l1.3-38.1c0-0.7 0.5-1.1 1.1-1.1z"/>
	<path id="Layer" class="s2" d="m32.6 65.4c0-0.6 0.4-1 1-1h49.7c0.6 0 1 0.4 1 1v23.1c0 0.6-0.4 1-1 1h-49.7c-0.6 0-1-0.4-1-1z"/>
	<path id="Layer" class="s3" d="m86.9 88.8h-54.6v-7.9h53.7c0.5 0 0.9 0.4 0.9 0.9z"/>
	<path id="Layer" class="s4" d="m27.8 65.4c0-0.6 0.4-1 1-1h49.7c0.6 0 1 0.4 1 1v23.1c0 0.6-0.4 1-1 1h-49.7c-0.6 0-1-0.4-1-1z"/>
	<path id="Layer" class="s5" d="m81.9 88.8h-54.7v-7.9h53.8c0.5 0 0.9 0.4 0.9 0.9z"/>
	<path id="Layer" class="s4" d="m15.4 48.2c0-0.6 0.4-1 1-1h17.6c0.6 0 1 0.4 1 1v41.1c0 0.6-0.4 1-1 1h-17.6c-0.6 0-1-0.4-1-1z"/>
	<path id="Layer" class="s3" d="m20.2 83.5c0-0.6 0.4-1 1-1h8.5c0.6 0 1 0.4 1 1v5.1c0 0.6-0.4 1-1 1h-8.5c-0.6 0-1-0.4-1-1z"/>
	<path id="Layer" class="s2" d="m35 48.1v41.3c0 0.5-0.4 0.9-1 0.9h-4.5c0.6 0 1-0.4 1-0.9v-41.3c0-0.5-0.4-0.9-1-0.9h4.5c0.6 0 1 0.4 1 0.9z"/>
	<path id="Layer" class="s6" d="m89.3 92.7h-77.8c-1.4 0-2.6-1.2-2.6-2.6 0-1.5 1.2-2.6 2.6-2.6h77.8c1.5 0 2.6 1.1 2.6 2.6 0 1.4-1.1 2.6-2.6 2.6z"/>
	<path id="Layer" class="s6" d="m91.9 90.1c0 0.7-0.3 1.4-0.7 1.8-0.5 0.5-1.2 0.8-1.9 0.8h-5.5c0.7 0 1.4-0.3 1.9-0.8 0.4-0.4 0.7-1.1 0.7-1.8 0-1.5-1.1-2.6-2.6-2.6h5.5c1.5 0 2.6 1.1 2.6 2.6z"/>
	<path id="Layer" class="s7" d="m86.4 90.1c0 0.7-0.3 1.4-0.7 1.8-0.5 0.5-1.2 0.8-1.9 0.8h-72.3c-1.4 0-2.6-1.2-2.6-2.6 0-0.7 0.3-1.4 0.8-1.9 0.5-0.4 1.1-0.7 1.8-0.7h72.3c1.5 0 2.6 1.1 2.6 2.6z"/>
	<path id="Layer" class="s8" d="m41.1 71.1c0-0.6 0.5-1 1-1h5.3c0.6 0 1 0.4 1 1v3c0 0.6-0.4 1-1 1h-5.3c-0.5 0-1-0.4-1-1z"/>
	<path id="Layer" class="s8" d="m72.3 71.1c0-0.6 0.4-1 1-1h5.2c0.6 0 1 0.4 1 1v3c0 0.6-0.4 1-1 1h-5.2c-0.6 0-1-0.4-1-1z"/>
	<path id="Layer" class="s8" d="m56.7 71.1c0-0.6 0.4-1 1-1h5.3c0.5 0 1 0.4 1 1v3c0 0.6-0.5 1-1 1h-5.3c-0.6 0-1-0.4-1-1z"/>
	<path id="Layer" class="s8" d="m20.3 53.1c0-0.5 0.4-1 1-1h8.2c0.6 0 1 0.5 1 1v3.1c0 0.6-0.4 1-1 1h-8.2c-0.6 0-1-0.4-1-1z"/>
	<path id="Layer" class="s8" d="m20.3 63.3c0-0.6 0.4-1 1-1h8.2c0.6 0 1 0.4 1 1v3.1c0 0.6-0.4 1-1 1h-8.2c-0.6 0-1-0.4-1-1z"/>
	<path id="Layer" class="s8" d="m20.3 73.3c0-0.6 0.4-1 1-1h8.2c0.6 0 1 0.4 1 1v3.1c0 0.5-0.4 1-1 1h-8.2c-0.6 0-1-0.5-1-1z"/>
	<path id="Layer" class="s9" d="m65.7 15.5c0 1.7-0.7 3.1-1.7 4.2-1.1 1-2.6 1.7-4.2 1.7h-33c-3.2 0-5.9-2.6-5.9-5.9 0-1.6 0.7-3 1.7-4.1 1.1-1 2.6-1.7 4.2-1.7h33c3.2 0 5.9 2.6 5.9 5.8z"/>
	<path id="Layer" class="s10" d="m60.6 15.5c0 1.7-0.7 3.1-1.7 4.2-1.1 1-2.6 1.7-4.2 1.7h-27.9c-3.2 0-5.9-2.6-5.9-5.9 0-1.6 0.7-3 1.7-4.1 1.1-1 2.6-1.7 4.2-1.7h27.9c3.2 0 5.9 2.6 5.9 5.8z"/>
</svg>