<svg version="1.2" xmlns="http://www.w3.org/2000/svg" viewBox="0 0 264 287" width="264" height="287">
	<title>logo</title>
	<defs>
		<linearGradient id="g1" x1="116.2" y1="222" x2="163.5" y2="47.8" gradientUnits="userSpaceOnUse">
			<stop offset="0" stop-color="#6fbf46"/>
			<stop offset="1" stop-color="#b8d53d"/>
		</linearGradient>
	</defs>
	<style>
		.s0 { fill: url(#g1) }
	</style>
	<path id="Layer" class="s0" d="m131 103c-2.1 0-4-1.7-4-3.8-0.5-27.8-7-46.9-7.1-47.1-0.7-2 0.4-4.3 2.5-5 2-0.7 4.4 0.4 5.1 2.4 0.3 0.8 7 20.3 7.6 49.5 0 2.2-1.8 4-4.1 4zm-0.8-3.4c-0.3 0-0.6 0-0.9-0.1-2.2-0.5-3.5-2.6-3-4.7 4.8-20 24.4-30.2 25.2-30.6 1.9-1 4.4-0.3 5.5 1.6 1 1.9 0.3 4.3-1.7 5.3-0.2 0.1-17.1 9-21.1 25.5-0.5 1.8-2.1 3-4 3zm12.1-29.5c2.5-17.3 14.4-60.6 73.1-56.9 2.1 0.1 3.6 1.9 3.4 3.8-1.4 14.8-10.7 70.3-70.1 61.3-4.1-0.6-7-4.2-6.4-8.2zm105.8 187.4c0 5.2-3.8 9.7-9.2 10.7-10.4 1.8-29.1 4.7-50.8 6.7-11.3 1.1-21.2-7.6-21.2-18.7v-22.8c0-4.7 3.9-8.4 8.6-8.4 5.2 0 8.5-4.1 8.5-8.3 0-2.2-0.9-4.4-2.9-6.1l-40.4-34.4c-5-4.3-12.6-4.3-17.5 0l-40.2 34.4c-5.9 5-2.1 14.4 5.6 14.4h0.1c4.9 0 8.7 3.8 8.7 8.4v22.8c0 11.1-9.9 19.8-21.3 18.7-21.7-2-40.4-4.9-50.8-6.8-5.4-0.9-9.2-5.4-9.2-10.7 0.5-80.2 42.4-117 60.3-125.5 3.5-1.7 6.6-3.2 9.3-4.6 8.4-4.4 15.5-10.8 20.8-18.4 7.4-10.7 15.1-14.2 20-15.3 0.1 0 0.2 0 0.3-0.1 2.9-0.6 4.8-0.4 4.8-0.4h1.3c0 0 0.7-0.1 2 0q0.1 0 0.3 0c4.2 0.4 13.6 2.8 22.6 15.8 5.3 7.6 12.4 14 20.7 18.4 2.7 1.4 5.8 3 9.3 4.6 18 8.6 59.8 45.4 60.3 125.6zm-130.7-18c0-3.3 2.7-6 6-6h17.5c3.4 0 6 2.7 6 6v16.6c0 3.3-2.6 6-6 6h-17.5c-3.3 0-6-2.7-6-6z"/>
</svg>
